<?xml version="1.0" encoding="UTF-8" standalone="no"?>
<svg
   xmlns:dc="http://purl.org/dc/elements/1.1/"
   xmlns:cc="http://creativecommons.org/ns#"
   xmlns:rdf="http://www.w3.org/1999/02/22-rdf-syntax-ns#"
   xmlns:svg="http://www.w3.org/2000/svg"
   xmlns="http://www.w3.org/2000/svg"
   id="svg8"
   version="1.1"
   viewBox="0 0 210 297"
   height="297mm"
   width="210mm">
  <defs
     id="defs2" />
  <metadata
     id="metadata5">
    <rdf:RDF>
      <cc:Work
         rdf:about="">
        <dc:format>image/svg+xml</dc:format>
        <dc:type
           rdf:resource="http://purl.org/dc/dcmitype/StillImage" />
        <dc:title></dc:title>
      </cc:Work>
    </rdf:RDF>
  </metadata>
  <g
     id="layer1">
    <path
       id="path27"
       d="m 102.95805,178.69414 c -0.30514,-0.30466 -0.55503,-0.8545 -0.55532,-1.22187 -2.8e-4,-0.36737 -0.32933,-0.8436 -0.73119,-1.05826 -0.57047,-0.30474 -0.70687,-0.66927 -0.62207,-1.66256 l 0.10861,-1.27223 -2.64293,-0.64544 c -3.112985,-0.76023 -7.270074,-2.65399 -9.232756,-4.20597 l -1.395332,-1.10337 -0.526582,0.75305 c -0.577835,0.82636 -1.868134,0.9951 -2.533002,0.33127 -0.664699,-0.66365 -0.498216,-1.95433 0.326743,-2.53311 l 0.751638,-0.52735 -1.293503,-1.75922 c -1.739317,-2.36555 -3.580962,-6.43223 -4.143152,-9.1488 -0.426891,-2.06274 -0.519425,-2.20912 -1.276046,-2.01858 -0.579597,0.14594 -1.043289,-0.0364 -1.601573,-0.62994 -0.432188,-0.45943 -1.211853,-0.93944 -1.732593,-1.06667 -1.776119,-0.43398 -1.575556,-2.69865 0.239123,-2.70007 0.43765,-3.4e-4 1.029844,-0.35383 1.315997,-0.78554 0.375568,-0.56658 0.818135,-0.76245 1.591111,-0.70415 1.051952,0.0794 1.080649,0.0372 1.628031,-2.39562 0.685412,-3.04616 2.498186,-7.02621 4.223942,-9.27393 l 1.296113,-1.68813 -0.977192,-0.84838 c -0.802845,-0.69702 -0.907912,-0.9624 -0.588881,-1.48743 0.589692,-0.97045 1.924185,-1.01895 2.622036,-0.0953 l 0.594394,0.78673 1.921707,-1.45325 c 1.056926,-0.79929 2.964256,-1.92696 4.238495,-2.50592 2.082412,-0.94617 3.198195,-1.28884 6.360402,-1.95332 0.84316,-0.17717 0.93529,-0.32636 0.75524,-1.22294 -0.16721,-0.83266 -0.0354,-1.13248 0.71397,-1.62433 0.55272,-0.36279 0.91877,-0.92907 0.91839,-1.4208 -0.001,-1.61387 2.30017,-1.49328 2.706,0.1418 0.12711,0.51207 0.53894,1.14933 0.91518,1.41612 0.50184,0.35585 0.63199,0.74663 0.48852,1.4669 -0.19226,0.96519 -0.15191,0.9915 2.38316,1.55342 3.04548,0.67507 6.772,2.39149 9.16131,4.21966 1.69733,1.29872 1.71847,1.30422 2.22531,0.57939 0.64056,-0.91604 2.09282,-0.9531 2.56871,-0.0655 0.27352,0.51011 0.19352,0.87696 -0.33915,1.55522 -0.88673,1.12911 -0.89002,1.10311 0.33512,2.64832 1.60635,2.02598 3.29019,5.61401 4.08633,8.70737 0.68618,2.66615 0.78352,2.82817 1.76623,2.93986 0.57202,0.065 1.24567,0.4113 1.497,0.76952 0.25132,0.35823 0.89182,0.70105 1.42332,0.76182 1.64568,0.18818 1.39753,2.756 -0.26645,2.7573 -0.34063,2.7e-4 -0.85108,0.35012 -1.13434,0.77745 -0.32061,0.48369 -0.88943,0.78374 -1.50694,0.79492 -0.93489,0.0169 -1.02535,0.16065 -1.57289,2.49915 -0.71543,3.0555 -2.29926,6.49177 -4.03765,8.76001 -1.30075,1.69721 -1.30631,1.71851 -0.58153,2.22532 0.80806,0.56505 0.96745,1.85968 0.31002,2.51814 -0.58604,0.58696 -1.87094,0.53127 -2.39897,-0.10396 -0.61015,-0.73401 -0.8575,-0.67964 -2.56026,0.56282 -2.11784,1.54532 -5.6396,3.0903 -8.72097,3.82586 l -2.64111,0.63045 0.10976,1.26245 c 0.0855,0.98304 -0.0518,1.3491 -0.6203,1.65391 -0.40842,0.21899 -0.72979,0.74345 -0.72945,1.19043 0.001,1.53924 -1.53222,2.17919 -2.61978,1.09332 z m -0.91565,-10.90306 c -6.8e-4,-0.8692 -0.24417,-2.18614 -0.54109,-2.92653 -0.48415,-1.2073 -0.48438,-1.50377 -0.002,-2.87372 0.29568,-0.84014 0.53721,-2.03909 0.53672,-2.66433 -7.7e-4,-0.99086 -0.18786,-1.22094 -1.45741,-1.79223 l -1.456524,-0.65543 -0.835744,1.04461 c -0.459662,0.57454 -1.153759,1.71957 -1.542425,2.54448 -0.388676,0.82492 -0.916769,1.50002 -1.173549,1.50023 -0.72183,5.6e-4 -3.761179,2.13019 -3.760785,2.63513 6.9e-4,0.88318 4.054096,3.18292 7.235147,4.10493 3.02154,0.87577 2.9993,0.88257 2.9979,-0.91714 z m 7.93799,0.623 c 1.85429,-0.57843 5.43943,-2.58062 6.14449,-3.43151 0.52066,-0.62834 -0.48155,-1.64177 -2.66846,-2.69833 -1.08909,-0.52617 -1.69851,-1.13598 -2.22976,-2.23123 -0.40208,-0.82893 -1.10245,-1.85552 -1.55637,-2.28129 l -0.82532,-0.77414 -1.62222,0.69688 c -1.59736,0.68618 -1.61898,0.71747 -1.40971,2.04023 0.1169,0.73885 0.42484,1.95273 0.68433,2.69751 0.33269,0.95491 0.3664,1.55145 0.11432,2.02334 -0.49439,0.92552 -1.01272,3.87102 -0.78526,4.4624 0.20782,0.5403 1.18761,0.42145 4.15396,-0.50386 z m -20.113095,-6.08869 c -3.79e-4,-0.48507 0.337968,-1.43784 0.751867,-2.11726 0.41391,-0.67942 0.853335,-1.57007 0.976496,-1.97922 0.123161,-0.40915 0.843541,-1.02389 1.600834,-1.36609 0.757293,-0.34221 1.805765,-1.07053 2.329928,-1.6185 0.929591,-0.97181 0.939886,-1.02938 0.418244,-2.33965 -0.648392,-1.62869 -1.350784,-1.79815 -3.995744,-0.96393 -1.801967,0.56834 -2.048225,0.57031 -3.726028,0.0299 -2.229041,-0.71798 -3.441075,-0.73531 -3.702312,-0.0529 -0.298951,0.78085 1.17402,5.34232 2.524743,7.81862 0.651102,1.19367 1.096223,2.25804 0.989167,2.36527 -0.455564,0.45627 0.285675,1.32677 1.038252,1.21931 0.582985,-0.0833 0.795058,-0.34897 0.794553,-0.99551 z m 30.176995,-0.21034 c 0.119,-0.58789 0.62594,-1.77891 1.12657,-2.64671 1.00451,-1.7413 2.37985,-5.93908 2.37882,-7.26058 -5.6e-4,-0.72165 -0.17146,-0.84464 -1.17254,-0.84386 -0.64453,5e-4 -1.92818,0.25926 -2.85255,0.57504 -1.55086,0.52978 -1.81771,0.52998 -3.45474,0.003 -2.85565,-0.91981 -3.19121,-0.81327 -4.09216,1.29924 -0.38101,0.89338 -0.32874,1.07286 0.54989,1.88793 0.534,0.49538 1.56547,1.20413 2.29215,1.57498 0.87943,0.44881 1.50376,1.11019 1.86708,1.97783 0.30022,0.71695 0.79244,1.57558 1.09383,1.9081 0.33567,0.37034 0.45872,0.88656 0.31759,1.33242 -0.30825,0.97385 0.0714,1.50359 0.98241,1.37077 0.51086,-0.0745 0.81576,-0.44715 0.96365,-1.17785 z m -13.1848,-7.6619 c 2.21678,-2.15582 2.2837,-2.27383 2.45169,-4.32344 0.22342,-2.72597 -0.54976,-4.25456 -2.72676,-5.39086 -4.55555,-2.37777 -9.450168,1.96181 -7.596112,6.73474 0.751279,1.93403 3.774022,5.19728 4.813472,5.19647 0.47819,-3.7e-4 1.65825,-0.85595 3.05771,-2.21691 z m -5.3212,-2.02945 c -1.48955,-1.30578 -1.872532,-2.71837 -1.12806,-4.16077 0.84538,-1.6379 2.20984,-2.52806 3.87709,-2.52936 1.68481,-0.001 2.81145,0.66846 3.56236,2.11778 2.01651,3.89206 -2.96807,7.50321 -6.31139,4.57235 z m 3.66602,-1.39918 c 0.84681,-0.84813 0.90475,-1.86632 0.14915,-2.62075 -0.66075,-0.65972 -1.61194,-0.7157 -2.19741,-0.12932 -0.65053,0.65155 -0.52239,2.65811 0.19643,3.07604 0.86834,0.50485 1.05513,0.47196 1.85183,-0.32597 z m -16.773968,-3.70446 c 1.146716,-0.39031 1.786835,-0.44269 2.268136,-0.1856 0.368804,0.19702 1.531809,0.45874 2.584475,0.58163 l 1.913925,0.22342 0.628243,-1.64889 c 0.606767,-1.59252 0.605864,-1.67408 -0.02646,-2.38535 -0.360076,-0.40505 -1.3293,-1.03766 -2.153828,-1.40582 -0.957574,-0.42757 -1.705901,-1.07755 -2.071505,-1.79925 -0.859544,-1.69674 -2.234581,-3.42164 -2.727341,-3.42125 -1.03603,8e-4 -3.82302,5.79249 -4.288246,8.91146 l -0.249912,1.67542 1.26245,-9.8e-4 c 0.694349,-5.5e-4 1.981369,-0.2457 2.860045,-0.54479 z m 27.871238,-0.0225 c 1.43999,-0.49015 1.75888,-0.4904 3.19965,-0.002 0.88014,0.29805 2.17191,0.54146 2.8706,0.54091 l 1.27034,-9.9e-4 -0.21648,-1.5703 c -0.45631,-3.30984 -3.16077,-9.01031 -4.27438,-9.00944 -0.50822,4e-4 -2.45819,2.63592 -2.82697,3.82088 -0.15645,0.50267 -0.82316,1.06872 -1.72197,1.462 -0.80667,0.35296 -1.81592,0.97593 -2.24276,1.38439 -0.74349,0.71144 -0.75294,0.79825 -0.22502,2.06728 0.30309,0.72858 0.62283,1.44368 0.71053,1.58913 0.25644,0.4253 1.73385,0.30507 3.45646,-0.28127 z m -5.43413,-7.76334 c 0.75807,-1.32644 1.61764,-2.16673 3.34476,-3.26972 1.27848,-0.81646 2.26123,-1.68111 2.1839,-1.92143 -0.40674,-1.26412 -5.70025,-3.84956 -8.8408,-4.31801 l -1.66202,-0.24791 0.001,1.40681 c 6e-4,0.77375 0.23219,2.06022 0.51467,2.85883 0.44906,1.26961 0.44932,1.60612 0.002,2.67885 -0.28133,0.67477 -0.511,1.85083 -0.5104,2.61347 9.8e-4,1.25528 0.14314,1.47153 1.50108,2.28328 1.7233,1.03016 1.66611,1.06455 3.46562,-2.08417 z m -10.10049,1.93386 c 1.43716,-0.84945 1.59351,-1.76255 0.7341,-4.28737 -0.45577,-1.33903 -0.45608,-1.73208 -0.003,-3.24339 0.28385,-0.94585 0.51567,-2.26814 0.51515,-2.93843 l -9.5e-4,-1.21871 -1.65475,0.24946 c -3.105915,0.46824 -8.573134,3.17449 -8.5723,4.24326 3.97e-4,0.50939 1.71812,1.89534 3.456918,2.78923 0.639177,0.32859 1.323281,1.02627 1.52023,1.55041 0.455006,1.21091 2.090539,3.59744 2.465189,3.59714 0.15655,-1.2e-4 0.849083,-0.33384 1.538943,-0.7416 z m 18.5698,-8.90445 c -0.61468,-0.61372 -0.79268,-0.0675 -0.33461,1.02684 0.41777,0.99806 0.42931,1.0018 0.56904,0.18417 0.0784,-0.459 -0.0271,-1.00396 -0.23443,-1.21101 z m -30.26642,0.814 c 0.141168,-0.54153 0.04036,-0.69744 -0.396248,-0.613 -0.737859,0.14269 -1.012235,1.34019 -0.306945,1.33964 0.28263,-2.2e-4 0.599075,-0.32721 0.703193,-0.72664 z m 15.90595,-7.34824 c 0.10212,-0.16553 -0.0426,-0.60197 -0.3215,-0.96989 -0.27893,-0.36792 -0.51245,-0.98031 -0.51892,-1.36088 -0.008,-0.4675 -0.24028,-0.24286 -0.71624,0.69251 -0.38745,0.76145 -0.70437,1.50964 -0.70425,1.66265 2.9e-4,0.37624 2.02724,0.35438 2.26091,-0.0244 z"
       style="fill:#cdac26;stroke-width:0.35277778" />
  </g>
</svg>
