<?xml version="1.0" encoding="UTF-8" standalone="no"?>
<svg
   xmlns:dc="http://purl.org/dc/elements/1.1/"
   xmlns:cc="http://creativecommons.org/ns#"
   xmlns:rdf="http://www.w3.org/1999/02/22-rdf-syntax-ns#"
   xmlns:svg="http://www.w3.org/2000/svg"
   xmlns="http://www.w3.org/2000/svg"
   id="svg8"
   version="1.1"
   viewBox="0 0 210 297"
   height="297mm"
   width="210mm">
  <defs
     id="defs2" />
  <metadata
     id="metadata5">
    <rdf:RDF>
      <cc:Work
         rdf:about="">
        <dc:format>image/svg+xml</dc:format>
        <dc:type
           rdf:resource="http://purl.org/dc/dcmitype/StillImage" />
        <dc:title></dc:title>
      </cc:Work>
    </rdf:RDF>
  </metadata>
  <g
     id="layer1">
    <path
       style="fill:#000000;stroke-width:0.26458332"
       d="M 67.265514,92.414904 43.871568,85.304378 43.404954,60.85814 66.510516,52.860061 81.257153,72.363213 Z"
       id="path10-5" />
    <path
       style="fill:#000000;stroke-width:0.26458332"
       d="M 29.879932,105.35607 6.4859862,98.24554 6.0193716,73.799303 29.124934,65.801223 43.871571,85.304375 Z"
       id="path10-7" />
    <path
       style="fill:#000000;stroke-width:0.26458332"
       d="m 68.487132,156.41598 -23.393945,-7.11053 -0.466615,-24.44623 23.105562,-7.99808 14.746637,19.50315 z"
       id="path10-73" />
    <path
       style="fill:#000000;stroke-width:0.26458332"
       d="M 30.634937,144.91091 7.2409911,137.80039 6.7743765,113.35415 29.879938,105.35607 44.626576,124.85922 Z"
       id="path10-4" />
    <path
       style="fill:#000000;stroke-width:0.26458332"
       d="M 91.12609,123.97167 67.732145,116.86114 67.26553,92.414903 90.371092,84.416823 105.11773,103.91998 Z"
       id="path10-60" />
    <path
       style="fill:#000000;stroke-width:0.26458332"
       d="m 129.73328,175.03158 -23.39394,-7.11052 -0.46662,-24.44624 23.10557,-7.99808 14.74663,19.50315 z"
       id="path10-5-9" />
    <path
       style="fill:#000000;stroke-width:0.26458332"
       d="m 92.347694,187.97274 -23.393947,-7.11052 -0.466615,-24.44624 23.105564,-7.99808 14.746634,19.50315 z"
       id="path10-7-9" />
    <path
       style="fill:#000000;stroke-width:0.26458332"
       d="m 130.9549,239.03265 -23.39395,-7.11053 -0.46662,-24.44624 23.10557,-7.99808 14.74664,19.50316 z"
       id="path10-73-6" />
    <path
       style="fill:#000000;stroke-width:0.26458332"
       d="m 93.102707,227.52758 -23.393948,-7.11052 -0.466614,-24.44624 23.105564,-7.99808 14.746641,19.50315 z"
       id="path10-4-1" />
    <path
       style="fill:#000000;stroke-width:0.26458332"
       d="m 153.59386,206.58835 -23.39395,-7.11053 -0.46662,-24.44624 23.10557,-7.99808 14.74664,19.50315 z"
       id="path10-60-9" />
    <path
       style="fill:#000000;stroke-width:0.26458332"
       d="m 165.60886,82.980717 -23.39395,-7.110526 -0.46662,-24.44624 23.10557,-7.998081 14.74664,19.503154 z"
       id="path10-5-5" />
    <path
       style="fill:#000000;stroke-width:0.26458332"
       d="m 128.2233,95.921879 -23.39395,-7.110526 -0.46662,-24.44624 23.10557,-7.998081 14.74664,19.503155 z"
       id="path10-7-8" />
    <path
       style="fill:#000000;stroke-width:0.26458332"
       d="m 166.83049,146.98181 -23.39395,-7.11053 -0.46661,-24.44624 23.10556,-7.99808 14.74664,19.50316 z"
       id="path10-73-8" />
    <path
       style="fill:#000000;stroke-width:0.26458332"
       d="m 128.97829,135.47673 -23.39394,-7.11052 -0.46662,-24.44624 23.10557,-7.998083 14.74663,19.503153 z"
       id="path10-4-6" />
    <path
       style="fill:#000000;stroke-width:0.26458332"
       d="m 189.46944,114.53748 -23.39395,-7.11053 -0.46662,-24.446237 23.10557,-7.99808 14.74664,19.503154 z"
       id="path10-60-7" />
    <flowRoot
       transform="matrix(1.3121481,0,0,0.87975839,773.21224,-260.70667)"
       style="font-style:normal;font-weight:normal;font-size:40px;line-height:4;font-family:sans-serif;letter-spacing:0px;word-spacing:0px;fill:#ff0000;fill-opacity:1;stroke:none"
       id="flowRoot154"
       xml:space="preserve"><flowRegion
         style="line-height:4;fill:#ff0000"
         id="flowRegion156"><rect
           style="line-height:4;fill:#ff0000"
           y="336.80539"
           x="-560"
           height="217.14285"
           width="177.14285"
           id="rect158" /></flowRegion><flowPara
         id="flowPara160">J</flowPara></flowRoot>    <flowRoot
       transform="matrix(0.90674383,0,0,0.81045299,783.82766,-348.28529)"
       style="font-style:normal;font-weight:normal;font-size:40px;line-height:1.25;font-family:sans-serif;letter-spacing:0px;word-spacing:0px;fill:#ff0000;fill-opacity:1;stroke:none"
       id="flowRoot162"
       xml:space="preserve"><flowRegion
         style="fill:#ff0000"
         id="flowRegion164"><rect
           style="fill:#ff0000"
           y="525.37683"
           x="-717.14288"
           height="177.14285"
           width="120"
           id="rect166" /></flowRegion><flowPara
         id="flowPara168">M</flowPara></flowRoot>    <flowRoot
       transform="matrix(0.96459412,0,0,0.96602884,582.5107,-185.52543)"
       style="font-style:normal;font-weight:normal;font-size:40px;line-height:1.25;font-family:sans-serif;letter-spacing:0px;word-spacing:0px;fill:#ff0000;fill-opacity:1;stroke:none"
       id="flowRoot170"
       xml:space="preserve"><flowRegion
         style="fill:#ff0000"
         id="flowRegion172"><rect
           style="fill:#ff0000"
           y="365.37683"
           x="-502.85715"
           height="157.14285"
           width="105.71429"
           id="rect174" /></flowRegion><flowPara
         id="flowPara176">G</flowPara></flowRoot>  </g>
</svg>
